<svg xmlns="http://www.w3.org/2000/svg" xmlns:xlink="http://www.w3.org/1999/xlink" width="1680" height="700" viewBox="0 0 1680 700">
    <defs>
        <path id="a" d="M0 0h1680v700H0z"/>
    </defs>
    <g fill="none" fill-rule="evenodd">
        <mask id="b" fill="#fff">
            <use xlink:href="#a"/>
        </mask>
        <use xlink:href="#a"/>
        <g mask="url(#b)" opacity=".2">
            <path fill="#CCC" fill-rule="nonzero" d="M1712 236.415c-118.563 174.227-258.848 277.105-407.461 298.26-117.593 16.75-237.695-19.383-329.518-99.108-48.042-41.713-85.91-63.26-119.172-67.809-29.723-4.064-51.977 5.9-75.53 16.452-26.351 11.805-53.601 24.011-94.212 17.997-46.264-6.851-103.058-37.028-173.63-92.254-82.68-64.703-183.765-84.97-277.341-55.622C120.676 290.237 27.456 394.606-32 551.451v3.93C27.237 397.01 120.683 291.666 235.565 255.63c93.119-29.215 193.73-9.025 276.036 55.386 158.53 124.056 217.378 97.691 269.302 74.433 23.363-10.467 45.434-20.359 74.752-16.34 32.975 4.508 70.609 25.951 118.434 67.476 92.134 79.993 212.65 116.24 330.652 99.441 74.249-10.57 146.78-41.424 215.578-91.706 68.259-49.888 132.611-118.89 191.681-205.427v-2.477z"/>
            <path fill="#CCC" fill-rule="nonzero" d="M1712 227.068c-111.044 164.21-236.274 259.55-372.648 283.566-158.062 27.832-288.756-49.252-352.601-97.68-107.388-81.459-156.595-58.002-208.692-33.16-29.402 14.017-59.805 28.507-102.306 24.915-48.17-4.082-105.539-31.514-175.387-83.867-89.695-67.226-176.593-90.398-258.277-68.863C138.498 279.29 46.447 377.799-32 545.089v3.29c78.539-168.557 170.72-267.74 274.455-295.086 81.238-21.42 167.725 1.67 257.056 68.625 70.067 52.516 127.676 80.04 176.121 84.145 42.886 3.639 73.467-10.95 103.043-25.048 51.69-24.647 100.516-47.922 207.215 33.013 50.747 38.493 104.773 66.852 160.578 84.288 64.75 20.231 129.73 24.82 193.132 13.658 68.227-12.017 134.642-42.43 197.398-90.39 61.507-47.007 120.254-111.507 175-192.064l.002-2.452z"/>
            <path fill="#CCC" fill-rule="nonzero" d="M1712 219.012c-103.09 153.688-217.305 244.653-339.896 270.562-115.815 24.472-238.026-7.266-373.625-97.032-108.92-72.107-163.947-44.474-222.204-15.22-65.914 33.097-134.07 67.322-288.018-43.806-100.266-72.377-172.762-96.764-242.402-81.555C156.412 271.497 69.79 359.429-32 535.154v2.777C70.099 361.167 156.772 272.814 246.16 253.29c69.207-15.114 141.358 9.205 241.263 81.32 79.912 57.682 136.82 76.37 182.32 76.366 42.555-.004 75.134-16.356 107.172-32.444 57.879-29.062 112.546-56.512 220.775 15.134 135.933 89.991 258.5 121.8 374.707 97.237 62.262-13.158 122.863-43.176 180.121-89.215 55.305-44.47 108.835-104.98 159.48-180.19l.002-2.486z"/>
            <path fill="#CCC" fill-rule="nonzero" d="M1712 210.672c-111.572 167.767-230.41 254.812-362.454 265.762-125.261 10.394-240.845-48.846-339.34-105.182-49.324-28.212-93.52-39.545-135.104-34.649-37.176 4.378-69.166 21.083-100.104 37.238-72.383 37.796-147.232 76.88-298.85-28.308-93.16-64.629-159.419-106.074-228.732-93.816C173.69 264.756 96.36 338.437-32 520.084v2.404c128.801-182.494 206.127-256.426 279.667-269.43 68.78-12.165 134.801 29.158 227.668 93.586 73.338 50.878 128.794 68.155 174.72 68.152 49.467-.004 87.875-20.053 125.604-39.755 64.09-33.47 124.625-65.08 233.837-2.616 46.998 26.881 103 57.206 162.017 78.296 63.949 22.852 122.228 31.706 178.15 27.07 66.745-5.534 128.721-29.878 189.467-74.421 59.498-43.63 117.533-107.522 172.869-190.237l.001-2.46z"/>
            <path fill="#CCC" fill-rule="nonzero" d="M1712 202.274c-106.064 160.233-216.966 243.553-338.215 254.36-114.333 10.212-222.963-43.328-328.031-95.085a8102.863 8102.863 0 0 0-23.823-11.705c-49.515-24.21-95.125-32.097-139.426-24.111-39.524 7.122-74.479 25.959-108.282 44.177-79.208 42.687-161.115 86.823-310.184-12.525-16.874-11.245-32.124-21.697-46.873-31.803-86.242-59.099-133.747-91.654-195.54-67.448C163.485 280.904 91.895 355.75-32 502.329v2.141C92.402 357.232 164.113 282.121 222.147 259.39c61.084-23.923 108.37 8.476 194.21 67.3 14.753 10.108 30.009 20.561 46.89 31.812 67.144 44.748 126.616 64.377 181.815 59.98 49.157-3.908 90.173-26.012 129.838-47.386 70.302-37.887 136.706-73.671 246.401-20.042 7.915 3.871 15.854 7.782 23.82 11.704 105.244 51.846 214.075 105.457 328.791 95.228 62.066-5.531 119.727-28.991 176.275-71.714 54.906-41.484 109.225-102.44 161.813-181.508v-2.49z"/>
            <path fill="#CCC" fill-rule="nonzero" d="M1711.852 194.091c-98.123 150.127-194.846 227.575-302.402 242.775-102.182 14.44-198.954-29.054-301.401-75.103-24.317-10.93-49.461-22.233-74.487-32.596-49.523-20.51-96.404-25.1-143.324-14.035-41.798 9.856-79.723 30.938-116.4 51.327-86.357 48.002-175.654 97.638-321.95 3.564-38.708-24.891-69.091-47.973-93.507-66.518C240.471 213.944 237.815 211.932-32 484.422v1.961C237.937 213.761 240.45 215.655 357.52 304.58c24.435 18.561 54.843 41.66 93.596 66.58 65.935 42.402 126.061 59.422 183.813 52.048 51.475-6.576 96.275-31.48 139.602-55.565 73.118-40.645 148.727-82.67 258.485-37.222 25.004 10.356 50.14 21.653 74.447 32.58 102.64 46.135 199.587 89.707 302.188 75.213 55.114-7.788 106.652-31.722 157.56-73.168 49.07-39.95 96.613-95.287 144.64-168.436v-2.519z"/>
            <path fill="#CCC" fill-rule="nonzero" d="M1712 185.904c-205.668 315.532-365.863 247.05-550.361 168.16-37.434-16.006-76.14-32.555-116.263-46.287-110.14-37.694-192.116 8.874-271.392 53.91-93.813 53.296-190.82 108.399-334.167 19.99-57.884-35.702-93.196-68.735-118.977-92.854-73.337-68.61-73.337-68.61-300.07 129.09A44923.874 44923.874 0 0 1-32 463.872v1.823c19.296-16.773 37.297-32.468 53.704-46.774C247.471 222.07 247.471 222.07 319.87 289.801c25.825 24.16 61.194 57.248 119.198 93.022 64.636 39.865 125.433 54.184 185.88 43.77 53.898-9.287 102.623-36.965 149.742-63.734 79.003-44.878 160.692-91.28 270.222-53.8 40.072 13.712 78.754 30.252 116.161 46.247 94.977 40.614 184.686 78.974 277.239 62.415 95.196-17.03 182.797-90.198 273.687-229.249l.001-2.568z"/>
            <path fill="#CCC" fill-rule="nonzero" d="M1712 176.57c-85.185 131.902-165.226 202.059-250.076 219.794-83.426 17.44-162.012-15.826-253.005-54.342-47.941-20.295-97.516-41.278-151.817-56.293-109.66-30.326-197.643 20.846-282.73 70.331-106.18 61.757-206.474 120.091-346.662 36.831-75.33-44.738-107.761-87.498-129.223-115.796-14.572-19.213-24.2-31.906-38.825-33.815-27.045-3.505-69.67 29.186-196.183 126.3C35.332 391.184 4.09 415.164-32 442.611v1.725c36.456-27.72 67.975-51.913 96.344-73.69 126.17-96.846 168.67-129.46 195.13-126.018 14.037 1.831 23.524 14.34 37.884 33.273 21.527 28.384 54.058 71.273 129.62 116.15 63.237 37.555 124.714 49.209 187.947 35.634 56.399-12.11 109.15-42.79 160.164-72.46 84.83-49.336 172.55-100.356 281.629-70.193 54.211 14.992 103.742 35.96 151.64 56.235 91.216 38.61 169.985 71.959 253.86 54.425 84.842-17.734 164.82-87.526 249.782-218.58v-2.544z"/>
            <path fill="#CCC" fill-rule="nonzero" d="M1711.852 168.197c-80.054 125.16-153.519 192.216-229.46 209.993-75.75 17.728-147.727-13.346-231.068-49.33-53.683-23.179-114.53-49.452-182.592-64.078-109.047-23.433-202.988 32.47-293.83 86.533-114.431 68.1-222.517 132.426-359.34 54.124-91.143-52.161-114.388-105.172-128.277-136.846-7.083-16.152-11.762-26.824-21.727-29.598-19.876-5.535-60.566 22.169-181.352 104.398C52.188 365.189 13.47 391.545-32 422.138v1.656c45.819-30.825 84.8-57.362 117.006-79.286 120.379-81.952 160.929-109.55 180.166-104.205 9.325 2.596 13.9 13.031 20.826 28.826 13.955 31.827 37.313 85.095 128.854 137.483 41.67 23.847 83.513 35.691 126.642 35.69 20.772 0 41.85-2.75 63.336-8.229 58.957-15.033 115.815-48.872 170.802-81.598 90.604-53.92 184.296-109.674 292.8-86.364 67.925 14.597 126.082 39.709 182.326 63.993 83.572 36.085 155.747 67.249 231.96 49.41 75.94-17.777 149.328-84.452 229.133-208.746v-2.57z"/>
            <path fill="#CCC" fill-rule="nonzero" d="M1712 159.005c-36.21 57.081-70.186 100.946-103.29 133.408-36.362 35.657-71.716 57.49-108.084 66.746-68.915 17.536-134.569-11.998-210.59-46.202-59.918-26.958-127.828-57.512-209.485-70.234-108.454-16.896-208.3 43.662-304.864 102.224-122.854 74.504-238.895 144.877-372.198 71.628C298.367 358.81 289 294.869 283.965 260.515c-2.187-14.923-3.63-24.783-10.98-28.12-15.627-7.107-56.165 17.373-190.48 98.479C50.76 350.046 12.396 373.21-32 399.784v1.599c44.708-26.76 83.321-50.076 115.243-69.353 130.304-78.687 174.201-105.196 189.149-98.403 6.663 3.03 8.066 12.597 10.187 27.082 2.633 17.967 6.238 42.574 22.444 70.137 19.124 32.53 52.021 61.772 97.778 86.914 37.27 20.48 75.55 30.677 115.695 30.677 24.664 0 50.031-3.849 76.299-11.528 61.566-17.995 122.603-55.012 181.632-90.81 96.348-58.43 195.975-118.855 303.902-102.033 81.466 12.692 149.285 43.204 209.119 70.125 76.264 34.312 142.13 63.952 211.53 46.284 36.617-9.32 72.18-31.27 108.721-67.104 32.815-32.18 66.477-75.52 102.298-131.78l.003-2.586z"/>
            <path fill="#CCC" fill-rule="nonzero" d="M1712 150.867c-34.018 54.175-65.578 95.866-95.92 126.762-33.827 34.446-66.328 55.563-99.359 64.557-62.765 17.094-122.408-11.521-191.472-44.65-64.595-30.986-137.807-66.106-232.973-75.605-107.867-10.757-213.6 54.662-315.849 117.938-131.37 81.299-255.45 158.092-385.048 89.62C274.355 367.66 281.647 294.476 285.566 255.16c1.473-14.774 2.536-25.448-3.593-29.375-13.775-8.835-64.137 18.335-231.002 108.335C26.038 347.566-1.551 362.445-32 378.814v1.558a68631.262 68631.262 0 0 0 83.648-45.06c166.297-89.688 216.489-116.758 229.558-108.388 5.424 3.475 4.394 13.805 2.969 28.105-3.949 39.63-11.3 113.399 106.538 175.658 33.114 17.496 67.794 26.223 104.719 26.223 28.317-.002 57.96-5.138 89.199-15.39 64.191-21.065 129.443-61.448 192.545-100.499 102.046-63.152 207.568-128.448 314.959-117.733 94.916 9.475 168.01 44.538 232.497 75.474 69.32 33.252 129.182 61.974 192.466 44.74 33.28-9.062 65.986-30.299 99.993-64.925 30.055-30.606 61.292-71.755 94.909-125.094v-2.616z"/>
            <path fill="#CCC" fill-rule="nonzero" d="M1711.852 143.54c-68.198 109.195-124.733 165.763-180.854 181.784-57.216 16.334-108.613-10.256-173.686-43.921-67.875-35.116-144.806-74.916-253.407-79.883-107.435-4.947-218.975 65.053-326.869 132.718-67.126 42.097-136.538 85.628-203.209 109.63-74.541 26.834-138.193 26.058-194.594-2.373-126.876-63.96-102.502-146.05-89.408-190.15 4.868-16.392 8.384-28.236 2.573-32.945-13.874-11.249-78.589 19.992-319.374 136.244L-32 357.07v1.518l5.647-2.727C207.694 242.865 278.33 208.764 291.503 219.443c5.11 4.141 1.7 15.629-3.02 31.526-6.826 22.989-16.174 54.473-7.937 88.698 9.743 40.484 42.73 75.149 98.044 103.033 29.642 14.944 60.383 22.223 93.895 22.223.873 0 1.75-.006 2.627-.015 30.772-.347 63.221-6.813 99.203-19.767 66.814-24.054 136.291-67.624 203.481-109.763 107.71-67.548 219.096-137.365 326.045-132.502 108.287 4.955 185.071 44.679 252.816 79.727 65.352 33.81 116.967 60.515 174.738 44.024 56.138-16.027 112.591-72.22 180.457-180.476v-2.61z"/>
            <path fill="#CCC" fill-rule="nonzero" d="M1711.852 134.181c-66.106 106.796-119.72 161.167-171.475 174.712-50.783 13.291-96.179-12.547-153.647-45.26-66.443-37.821-149.109-84.854-271.097-84.177-107.113.63-224.515 75.565-338.052 148.033-71.224 45.46-144.874 92.468-214.172 119.614-77.483 30.353-141.688 32.303-196.284 5.964-59.338-28.626-90.495-63.925-95.25-107.912-3.979-36.822 11.815-71.98 23.348-97.651 8.648-19.25 14.896-33.158 8.813-39.013-13.17-12.67-80.513 13.927-336.033 125.841v1.492c236.813-103.752 321.979-138.934 335.05-126.365 5.401 5.197-.686 18.747-9.111 37.5-11.595 25.812-27.477 61.16-23.458 98.34 4.743 43.869 37.05 80.54 96.02 108.989 25.955 12.521 53.33 18.665 83.352 18.665 4.052 0 8.151-.111 12.3-.334 31.094-1.673 64.386-9.605 101.775-24.252 69.428-27.196 143.136-74.244 214.417-119.74 113.368-72.36 230.594-147.181 337.295-147.809.92-.005 1.824-.008 2.74-.008 120.068 0 201.846 46.547 267.643 84.001 57.748 32.871 103.36 58.832 154.716 45.398 51.805-13.558 105.345-67.55 171.11-173.399v-2.629z"/>
            <path fill="#CCC" fill-rule="nonzero" d="M1711.787 126.18c-63.85 103.661-114.514 155.614-162.01 166.92-45.3 10.781-85.413-14.553-136.2-46.632-67.294-42.506-151.049-95.402-286.21-87.894-107.001 5.947-230.225 85.602-349.39 162.635-75.297 48.674-153.156 99.004-225.045 129.204-80.38 33.766-145.086 38.43-197.819 14.249-47.582-21.817-77.157-49.258-87.904-81.56-16.39-49.268 12.53-100.081 33.647-137.188 13.106-23.028 22.576-39.667 15.811-47.037-13.23-14.415-89.076 10.015-348.52 113.12v1.468c256.083-101.767 334.9-127.381 347.48-113.685 6.105 6.651-3.646 23.786-15.993 45.479-21.24 37.32-50.33 88.433-33.753 138.26 10.87 32.672 40.692 60.385 88.637 82.37 22.57 10.349 46.716 15.455 73.324 15.455 6.95 0 14.069-.348 21.37-1.043 31.393-2.985 65.501-12.356 104.277-28.645 72.004-30.246 149.917-80.611 225.264-129.316 119.01-76.933 242.073-156.485 348.695-162.411 134.714-7.492 218.244 45.28 285.367 87.677 51.068 32.256 91.398 57.728 137.295 46.812 47.573-11.325 98.172-62.89 161.677-165.601v-2.637z"/>
            <path fill="#CCC" fill-rule="nonzero" d="M1712 116.828c-61.649 101.169-109.52 151.065-153.04 160.307-40.49 8.588-75.882-16.619-120.694-48.545-33.1-23.58-70.615-50.305-118.626-69.385-55.608-22.103-114.636-29.523-180.45-22.679-107.147 11.134-236.243 96.078-361.09 178.223-79.361 52.219-161.426 106.214-235.888 139.662-83.261 37.398-148.446 44.789-199.28 22.59-47.75-20.853-76.915-47.654-86.682-79.659-16.092-52.733 21.899-110.285 49.64-152.307 18.374-27.837 31.649-47.946 23.893-57.303C315.408 170.393 226.665 195.14-32 289.314v1.454c255.179-92.898 346.95-118.758 360.696-102.18 7.123 8.594-6.604 29.386-23.981 55.712-27.887 42.245-66.079 100.1-49.804 153.432 9.89 32.404 39.312 59.492 87.45 80.514 19.49 8.51 40.583 12.73 63.91 12.73 9.54 0 19.453-.706 29.78-2.112 31.679-4.313 66.595-15.179 106.748-33.213 74.566-33.493 156.677-87.521 236.086-139.77 124.704-82.053 253.654-166.9 360.454-177.998 147.68-15.345 231.086 44.068 298.102 91.81 45.096 32.127 80.722 57.495 121.817 48.776 24.087-5.116 48.97-22.108 76.073-51.945 23.034-25.36 48.284-60.59 76.669-107.02v-2.676z"/>
            <path fill="#CCC" fill-rule="nonzero" d="M1712 107.528c-59.994 99.506-104.055 145.94-144.432 153.334-36.255 6.64-67.435-18.575-106.912-50.492-32.4-26.196-69.124-55.888-118.444-76.463-57.303-23.904-119.877-30.293-191.287-19.542-107.496 16.186-242.463 106.27-372.987 193.391-83.371 55.647-169.582 113.187-246.552 149.8-86.065 40.935-151.667 51.023-200.563 30.84-47.835-19.749-76.698-45.71-85.789-77.163-16.009-55.391 30.966-119.405 65.264-166.145 23.556-32.1 42.163-57.456 33.166-69.216-8.17-10.68-38.255-9.05-97.545 5.295C187.509 195.296 98.803 222.36-32 265.977v1.44c257.18-85.791 359.282-110.423 374.343-90.73 8.385 10.962-9.959 35.96-33.183 67.608-34.464 46.965-81.664 111.286-65.472 167.31 9.21 31.87 38.344 58.129 86.588 78.047 16.42 6.778 34.69 10.178 54.954 10.178 40.566-.001 89.116-13.626 146.767-41.048 77.063-36.656 163.316-94.226 246.729-149.9 130.395-87.033 265.228-177.029 372.41-193.169 160.384-24.154 246.064 45.125 308.624 95.707 39.762 32.148 71.173 57.539 108.064 50.782 40.521-7.42 84.55-53.475 144.175-151.986l.001-2.688z"/>
            <path fill="#CCC" fill-rule="nonzero" d="M1712 99.186c-57.8 96.624-99.359 141.017-136.198 146.597-32.559 4.945-59.986-20.435-94.718-52.55-61.166-56.556-144.931-134.009-318.426-100.044-108.077 21.16-248.941 116.464-385.17 208.631-87.332 59.086-177.638 120.184-257.062 159.952-88.805 44.467-154.789 57.23-201.719 39.02-47.925-18.596-76.6-43.642-85.228-74.444-16.086-57.428 37.4-124.818 80.375-178.968 30.227-38.085 54.102-68.167 43.655-82.767C340.55 140.91 230.749 163.036-32 243.532v1.43c259.017-79.335 372.032-102.395 388.363-79.567 9.858 13.777-13.74 43.509-43.615 81.15-43.167 54.389-96.887 122.077-80.618 180.161 8.75 31.238 37.705 56.59 86.062 75.353 13.906 5.395 29.45 8.102 46.74 8.102 41.55-.001 93.152-15.64 156.133-47.175 79.506-39.81 169.85-100.933 257.22-160.044 136.112-92.088 276.856-187.31 384.648-208.413 172.784-33.827 256.247 43.345 317.189 99.696 35.009 32.37 62.643 57.928 95.894 52.907 37.016-5.607 78.559-49.628 135.984-145.251v-2.695z"/>
            <path fill="#CCC" fill-rule="nonzero" d="M1712 91.132c-55.61 93.415-94.78 135.715-128.323 139.665-29.351 3.464-53.426-22.13-83.938-54.518-28.534-30.29-64.047-67.989-114.9-91.785-59.42-27.804-128.256-31.78-210.446-12.147-108.883 26.006-255.675 126.308-397.635 223.305-91.24 62.344-185.585 126.809-267.407 169.589-91.478 47.83-157.8 63.201-202.759 46.976-48.066-17.344-76.655-41.349-84.975-71.347-16.282-58.708 45.347-131.59 94.867-190.154 37.674-44.553 67.431-79.744 55.347-97.57-18.415-27.167-135.93-7.563-403.831 67.745v1.418c264.039-74.205 384.879-94.66 402.665-68.413 11.515 16.987-19.43 53.582-55.26 95.956-49.725 58.804-111.607 131.987-95.137 191.374 8.444 30.447 37.325 54.761 85.84 72.267 11.646 4.203 24.696 6.311 39.221 6.311 42.043 0 96.418-17.666 164.684-53.363 81.896-42.82 176.277-107.309 267.55-169.674 141.853-96.927 288.536-197.153 397.164-223.099 184.864-44.156 265.269 41.205 323.982 103.531 30.781 32.678 55.097 58.492 85.136 54.95 33.754-3.977 72.918-45.9 128.155-138.316v-2.701z"/>
            <path fill="#C8C8C8" fill-rule="nonzero" d="M1712 125.183c-51.609 73.372-90.038 107.875-122.643 110.751-31.17 2.75-55.38-22.473-85.998-54.412-56.488-58.923-133.85-139.622-312.508-87.883-76.478 22.148-172.327 83.983-273.806 149.45-20.358 13.132-41.409 26.713-62.49 40.093L834.5 295.92c-96.521 61.33-196.327 124.747-283.417 165.769-97.4 45.883-168.707 58.518-217.992 38.629-46.87-18.914-75.21-44.223-84.224-75.227-16.904-58.13 34.71-127.463 76.18-183.173 31.813-42.736 56.942-76.49 44.258-93.874-19.92-27.3-136.71-7.56-401.305 68.201v1.42c134.277-38.437 230.808-62.401 294.571-73.142 62.246-10.487 95.799-9.116 105.593 4.308 12.104 16.59-14.011 51.671-44.25 92.29-41.65 55.947-93.482 125.577-76.393 184.342 9.138 31.422 37.747 57.03 85.034 76.111 15.446 6.233 32.675 9.34 52.051 9.34 14.042 0 29.212-1.632 45.64-4.892 34.79-6.902 74.516-21.003 121.448-43.11 87.168-41.061 187.014-104.503 283.571-165.855l20.056-12.738c21.085-13.385 42.138-26.966 62.498-40.1 101.388-65.408 197.154-127.19 273.43-149.279 177.825-51.503 254.85 28.842 311.087 87.507 30.88 32.21 55.278 57.665 87.148 54.84 32.79-2.893 71.208-37.073 122.516-109.696v-2.409z"/>
            <path fill="#C3C3C3" fill-rule="nonzero" d="M1711.85 158.628c-47.3 55.121-84.533 81.784-115.933 83.35-33.585 1.662-59.258-24.692-89.003-55.217-28.169-28.908-60.095-61.673-106.594-79.987-53.812-21.195-116.98-18.728-193.122 7.538-59.02 20.36-127.469 64.718-206.73 116.08-39.856 25.827-81.07 52.535-124.136 78.083C773.84 369.28 674.49 426.861 585.76 463.117c-99.349 40.595-173.342 48.867-226.207 25.294-46.16-20.587-73.48-46.279-83.522-78.547-17.771-57.112 24.06-122.983 57.67-175.913 26.32-41.445 47.107-74.18 33.532-91.317-11.194-14.132-45.45-15.766-107.807-5.152C196.233 148.24 100.732 172.386-32 211.172v1.416c260.759-76.252 376.63-96.26 398.125-69.126 12.986 16.393-8.609 50.399-33.613 89.772-33.76 53.163-75.773 119.324-57.82 177.022 10.164 32.663 37.732 58.632 84.278 79.388 19.693 8.782 42.27 13.185 67.957 13.184 43.76-.001 96.534-12.78 159.376-38.459 88.819-36.293 188.217-93.903 290.76-154.735 43.087-25.562 84.313-52.278 124.183-78.113 79.182-51.31 147.567-95.626 206.42-115.928 170.624-58.862 241.382 13.754 298.233 72.102 29.985 30.771 55.869 57.332 90.09 55.64 31.56-1.574 68.791-28.014 115.863-82.599v-2.108h-.002z"/>
            <path fill="#BFBFBF" fill-rule="nonzero" d="M1712 191.013c-42.987 39.16-77.712 57.6-108.001 57.6h-.072c-36.462-.036-62.652-26.465-92.977-57.064-27.409-27.658-58.475-59.005-102.824-74.71-50.969-18.045-111.274-12.445-184.367 17.127-47.618 19.265-101.249 55.209-163.347 96.829-48.774 32.689-104.055 69.738-162.146 101.777-90.01 49.643-194.444 104.507-286.56 135.015-96.606 31.996-170.409 34.47-225.626 7.568-44.596-21.729-71.694-48.227-82.844-81.012-18.915-55.619 13.526-118.028 39.593-168.178 21.084-40.561 37.736-72.6 22.915-89.622-12.535-14.395-47.248-16.158-109.244-5.546-62.781 10.749-157.325 35.056-288.5 74.187v1.419c257.176-76.772 372.638-96.791 396.676-69.184 14.223 16.337-2.246 48.02-23.096 88.132-26.183 50.372-58.769 113.063-39.67 169.216 11.271 33.146 38.599 59.903 83.544 81.801 25.451 12.4 54.794 18.606 88.45 18.606 39.828-.001 85.692-8.694 138.253-26.104 92.225-30.545 196.733-85.444 286.8-135.12 58.144-32.07 113.452-69.138 162.249-101.841 62.033-41.577 115.607-77.484 163.091-96.692 163.378-66.101 231.173 2.305 285.644 57.272 30.547 30.825 56.927 57.443 93.983 57.48h.073c30.426 0 65.171-18.283 108.002-57.097v-1.859h.001z"/>
            <path fill="#BABABA" fill-rule="nonzero" d="M1712 224.294c-102.747 67.385-146.536 23.774-196.726-26.227-55.304-55.098-117.991-117.55-275.06-43.65-39.421 18.547-82.596 49.1-132.59 84.48-55.306 39.136-117.992 83.496-187.5 119.052-117.318 60.011-207.075 96.814-282.472 115.82-93.741 23.63-167.364 20.267-225.078-10.287-57.425-30.4-86.767-69.439-89.7-119.347-2.525-42.973 14.618-86.095 29.743-124.143 15.99-40.22 28.618-71.989 12.123-89.065-14.207-14.708-49.59-16.61-111.356-5.987C190.87 135.692 97.346 160.195-32 199.725v1.428c129.503-39.586 223.107-64.118 285.628-74.87 61.252-10.535 96.239-8.762 110.092 5.58 15.894 16.452 3.404 47.867-12.408 87.642-29.536 74.296-69.987 176.05 60.593 245.177 32.704 17.313 70.454 25.952 114.021 25.95 33.752-.002 70.999-5.188 112.075-15.543 75.503-19.034 165.356-55.871 282.772-115.934 69.598-35.6 132.327-79.992 187.67-119.155 49.94-35.34 93.07-65.86 132.379-84.356 156.158-73.47 218.475-11.395 273.45 43.375 26.733 26.632 51.981 51.787 85.496 59.026 32.053 6.927 68.147-3.319 112.23-32.106v-1.645h.002z"/>
            <path fill="#B6B6B6" fill-rule="nonzero" d="M1711.85 258.195c-98.838 39.6-144.032-4.948-191.686-51.944-55.84-55.072-113.58-112.018-263.608-30.682-33.157 17.974-68.527 44.697-109.482 75.637-59.237 44.755-126.38 95.48-205.179 132.616-110.066 51.872-201.108 83.468-278.325 96.591-90.722 15.42-164.171 6.16-224.545-28.311-121.03-69.105-94.811-165.88-75.668-236.538 10.92-40.311 19.547-72.152.838-89.371-16.262-14.97-52.562-16.994-114.238-6.362C187.564 130.58 95.161 155.22-32 195.035v1.432c127.319-39.873 219.8-64.543 282.203-75.296 61.205-10.544 97.121-8.634 113.033 6.01 18.104 16.666 9.572 48.161-1.23 88.035-9.926 36.633-21.175 78.152-14.902 119.935 7.296 48.609 37.133 87.248 91.214 118.126 41.796 23.865 89.804 35.71 145.402 35.71 25.107 0 51.762-2.416 80.091-7.232 77.348-13.146 168.51-44.78 278.695-96.707 78.93-37.2 146.133-87.97 205.427-132.765 40.91-30.908 76.241-57.6 109.304-75.525 149.096-80.833 206.46-24.26 261.933 30.45 24.715 24.374 50.27 49.577 83.386 60.972 31.968 11 67.135 8.34 109.296-8.496v-1.49h-.002z"/>
            <path fill="#B1B1B1" fill-rule="nonzero" d="M1712 291.055c-94.138 13.615-140.59-32.008-185.605-76.243-28.87-28.37-56.138-55.165-94.423-64.011-42.987-9.925-93.46 4.347-158.852 44.934-28.15 17.472-58.866 42.449-91.382 68.89-61.465 49.983-131.132 106.633-217.9 144.04-219.76 94.737-378.093 104.575-498.282 30.963-112.504-68.909-99.552-161.176-90.095-228.549 5.744-40.918 10.281-73.237-11.32-90.693-18.73-15.135-56.22-17.22-117.985-6.564C183.72 124.593 92.562 149.326-32 189.308v1.437c124.72-40.045 215.956-64.81 278.4-75.582 61.327-10.58 98.46-8.588 116.848 6.272 21.004 16.971 16.513 48.96 10.827 89.459-4.92 35.044-10.495 74.763-.757 114.894 11.306 46.594 41.235 84.21 91.493 114.993 53.108 32.526 113.258 48.535 182.916 48.535 13.634 0 27.635-.614 42.017-1.838 79.402-6.752 169.244-32.124 274.658-77.569 86.948-37.483 156.695-94.199 218.231-144.238 32.482-26.413 63.162-51.363 91.237-68.787 65.049-40.373 115.183-54.6 157.778-44.757 37.898 8.755 65.03 35.416 93.754 63.644 23.902 23.487 48.618 47.777 81.17 63.139 31.11 14.68 65.774 19.15 105.428 13.512v-1.367z"/>
            <path fill="#ADADAD" fill-rule="nonzero" d="M1712 324.884c-88.354-9.856-135.764-56.55-177.936-98.143-60.004-59.18-107.396-105.92-244.49-9.316-23.98 16.897-49.566 39.343-76.655 63.105-62.503 54.83-133.347 116.974-227.221 153.538-203.787 79.373-365.26 77.293-493.65-6.363-103.897-67.696-103.33-151.352-102.873-218.572.283-41.945.508-75.074-24.832-92.764-21.615-15.09-60.563-17.145-122.576-6.46C179.163 120.694 89.442 145.364-32 185.205v1.434c121.599-39.904 211.4-64.608 274.01-75.393 61.615-10.614 100.227-8.634 121.516 6.225 24.752 17.281 24.53 50.101 24.248 91.654-.226 33.253-.481 70.942 12.38 109.09 14.9 44.197 44.703 80.381 91.111 110.618 66.564 43.37 139.947 64.563 224.343 64.788.454.002.903.003 1.357.003 80.462-.001 168.557-19.076 269.252-58.294 94.106-36.654 165.046-98.885 227.637-153.79 27.062-23.738 52.62-46.16 76.54-63.016 136.123-95.914 183.143-49.539 242.672 9.171 42.37 41.787 90.002 88.703 178.933 98.56v-1.37h.001z"/>
            <path fill="#A8A8A8" fill-rule="nonzero" d="M1712 357.32c-81.205-29.925-129.003-78.388-168.017-117.979-33.006-33.495-59.076-59.95-94.091-65.513-37.737-5.992-82.117 13.472-143.862 63.129-20.373 16.384-41.685 36.818-64.25 58.452-59.596 57.14-133.765 128.252-234.224 163.52-190.653 66.935-350.613 52.635-489.02-43.722-95.2-66.273-105.409-145.485-113.61-209.135-5.669-43.98-10.146-78.719-40.265-96.842C316 79.953 200.378 100.045-32 178.695v1.441c232.234-78.633 347.626-98.806 395.925-69.745 29.55 17.781 33.989 52.234 39.612 95.853 8.237 63.912 18.488 143.453 114.185 210.074 69.918 48.675 143.098 75.986 223.722 83.495a494.502 494.502 0 0 0 45.861 2.11c68.46 0 141.139-13.77 220.725-41.711 100.746-35.371 175.037-106.598 234.73-163.832 22.543-21.612 43.833-42.026 64.16-58.373 61.404-49.383 105.435-68.753 142.746-62.836 34.554 5.49 60.482 31.802 93.306 65.113 39.195 39.774 87.234 88.48 169.027 118.492v-1.455h.001z"/>
            <path fill="#A4A4A4" fill-rule="nonzero" d="M1712 391.451c-72.018-44.821-117.608-93.3-154.912-132.973-38.951-41.422-67.092-71.35-104.28-72.731-33.38-1.3-73.61 21.291-130.322 73.065-17.13 15.636-34.754 34.108-53.412 53.665-59.202 62.054-132.883 139.282-239.657 172.49-179.89 55.95-333.812 30.237-484.394-80.92-86.374-63.761-106.033-137.828-121.827-197.343-12.367-46.602-22.136-83.409-58.289-101.924C309.02 76.16 193.27 96.4-32 174.737v1.443c225.165-78.333 340.708-98.638 396.256-70.195 35.605 18.234 45.306 54.784 57.586 101.06 15.849 59.718 35.575 134.04 122.336 198.087 99.668 73.573 200.773 109.81 309.887 109.805 56.172-.002 114.481-9.609 175.778-28.672 107.123-33.317 180.942-110.692 240.256-172.863 18.642-19.539 36.248-37.994 53.342-53.599 56.42-51.501 96.342-73.92 129.313-72.696 36.603 1.359 64.58 31.112 103.301 72.29 37.49 39.87 83.346 88.621 155.945 133.663v-1.609z"/>
            <path fill="#9F9F9F" fill-rule="nonzero" d="M1711.85 425.116c-60.762-53.376-102.81-101.644-137.316-141.263-45.045-51.723-74.807-85.893-110.795-86.752a54.954 54.954 0 0 0-1.424-.017c-31.072 0-67.03 24.186-123.49 82.924-14.104 14.672-28.421 31.215-43.58 48.726-58.373 67.442-131.02 151.372-244.06 182.109-171.02 46.499-314.493 11.134-479.724-118.259-77.348-60.571-104.825-129.277-126.902-184.483-23.549-58.883-42.148-105.39-108.337-117.465-67.045-12.233-181.155 12.275-368.22 79.31v1.45c187.1-67.078 301.123-91.622 367.963-79.422 65.425 11.935 83.9 58.133 107.291 116.621 22.14 55.357 49.69 124.252 127.329 185.05 79.02 61.882 149.66 100.251 222.308 120.754 40.064 11.307 80.573 16.963 122.094 16.963 44.167-.002 89.475-6.402 136.576-19.209 113.455-30.849 186.257-114.96 244.754-182.542 15.145-17.498 29.452-34.027 43.53-48.674 56.172-58.435 91.828-82.492 122.47-82.492.463 0 .93.005 1.39.017 35.362.843 64.96 34.829 109.763 86.273 34.71 39.856 77.047 88.454 138.383 142.216v-1.835h-.003z"/>
            <path fill="#9B9B9B" fill-rule="nonzero" d="M1711.85 457.36c-47.276-53.623-83.525-99.738-113.437-137.793-56.975-72.488-88.359-112.417-124.266-112.994a56.062 56.062 0 0 0-.828-.006c-29.109 0-60.18 24.637-118.037 93.418-11.19 13.301-22.436 27.708-34.34 42.96-57.208 73.283-128.402 164.488-247.894 192.287-186.303 43.343-324.668-30.801-475.102-155.46-68.022-56.366-99.919-116.46-128.062-169.48-32.901-61.985-58.889-110.945-129.677-124.728C268.04 71.521 152.671 95.752-32 164.03v1.454C152.697 97.16 267.967 72.889 339.932 86.897c70.129 13.654 95.98 62.358 128.71 124.02 28.201 53.13 60.165 113.351 128.398 169.892 85.272 70.66 153.584 113.706 221.499 139.571 49.904 19.008 100.016 28.476 151.396 28.476 33.832 0 68.217-4.108 103.439-12.301 53.44-12.432 101.66-38.197 147.412-78.764 39.838-35.325 72.476-77.136 101.272-114.024 11.897-15.24 23.136-29.638 34.307-42.921 57.36-68.188 89.314-93.37 117.76-92.912 35.229.565 66.468 40.31 123.178 112.46 30.148 38.355 66.728 84.89 114.549 139.058v-2.092h-.002z"/>
            <path fill="#969696" fill-rule="nonzero" d="M1711.85 490.024c-31.39-43.706-58.248-82.45-80.666-114.789-73.568-106.126-110.494-159.395-147.5-159.836-.165-.002-.327-.002-.49-.002-29.823 0-58.582 32.454-111.453 104.835-8.305 11.37-16.592 23.269-25.366 35.865-55.735 80.013-125.1 179.594-251.469 204.083-189.825 36.78-325.376-65.574-470.477-192.85-58.213-51.062-93.27-104.722-124.202-152.064-43.193-66.11-77.308-118.329-153.606-134.41-78.386-16.517-195.76 7.36-378.621 77.33v1.462C150.875 89.63 268.145 65.707 346.327 82.187c75.728 15.96 109.706 67.966 152.723 133.808 30.978 47.418 66.09 101.159 124.446 152.344 79.469 69.709 147.393 123.374 220.587 158.712 58.068 28.034 115.861 41.94 175.026 41.938 25.067-.001 50.391-2.498 76.072-7.475 56.535-10.957 106.398-37.42 152.44-80.905 40.079-37.851 71.866-83.487 99.912-123.75 8.768-12.59 17.053-24.48 25.348-35.837 51.542-70.56 81.29-104.264 110.34-104.264.147 0 .298 0 .447.002 36.274.432 73.064 53.503 146.358 159.237 22.692 32.735 49.936 72.036 81.826 116.4v-2.373h-.002z"/>
            <path fill="#929292" fill-rule="nonzero" d="M1711.85 522.92a36789.182 36789.182 0 0 1-35.18-58.145c-102.666-169.922-145.158-240.255-184.404-240.599l-.273-.001c-30.224 0-57.952 44.048-103.79 116.873-5.408 8.589-10.771 17.319-16.451 26.56-53.925 87.742-121.036 196.938-254.984 217.667-186.541 28.876-315.976-91.045-465.854-229.892-47.627-44.12-82.746-90.07-113.732-130.611-52.446-68.62-97.74-127.884-180.76-147.068-43.56-10.07-95.702-8.89-159.403 3.603-63.232 12.4-138.354 35.965-229.019 71.86v1.464c181.914-72.113 302.234-95.452 388.1-75.606 82.523 19.07 125.523 75.33 179.96 146.557 31.02 40.584 66.177 86.582 113.89 130.785 74.031 68.582 143.957 133.36 219.56 177.715 65.301 38.309 127.581 56.878 192.357 56.877 18.137 0 36.471-1.455 55.12-4.34 59.935-9.276 111.58-36.583 157.891-83.481 40.275-40.787 70.983-90.75 98.076-134.831 5.677-9.24 11.04-17.966 16.443-26.549 45.586-72.423 73.155-116.222 102.597-116.222l.26.001c38.453.337 83.817 75.42 183.211 239.928a36856.639 36856.639 0 0 0 36.387 60.132v-2.676h-.002z"/>
            <path fill="#8D8D8D" fill-rule="nonzero" d="M1712 555.632c-119.641-228.51-171.95-324.079-211.975-324.166h-.057c-26.435 0-47.36 39.577-82.015 105.113-4.181 7.907-8.557 16.184-13.161 24.802a5129.885 5129.885 0 0 0-7.494 14.084c-51.651 97.274-115.934 218.334-258.566 234.893-170.555 19.792-290.38-98.59-429.111-235.678-10.486-10.36-21.329-21.076-32.16-31.692-35.74-35.026-65.458-69.842-94.197-103.51C518.56 163.67 462.68 98.203 371.255 74.552c-48.192-12.465-103.708-12.71-169.721-.748C135.54 85.767 58.939 109.857-32 147.269v1.479c180.132-74.116 308.58-97.277 402.895-72.88 90.992 23.54 146.74 88.853 211.291 164.48 28.759 33.692 58.497 68.53 94.28 103.6 10.83 10.613 21.672 21.327 32.156 31.687 68.522 67.707 133.242 131.66 202.238 176.227 64.883 41.912 126.366 62.039 190.763 62.039 12.304 0 24.715-.735 37.274-2.193 143.368-16.643 207.839-138.06 259.642-235.619 2.52-4.75 5.017-9.449 7.491-14.082a6349.26 6349.26 0 0 0 13.165-24.806c34.412-65.08 55.19-104.376 80.771-104.376h.055c39.349.084 91.732 96.104 211.978 325.802v-2.995h.001z"/>
            <path fill="#898989" fill-rule="nonzero" d="M1711.85 588.423c-120.282-260.869-168.823-349.72-204.906-349.72-.082 0-.168 0-.25.002-23.808.27-40.998 40.292-67.015 100.87-5.819 13.549-11.835 27.556-18.546 42.6-45.455 101.9-107.709 241.455-260.642 253.277-158.677 12.25-270.317-106.555-399.525-244.145-18.51-19.71-37.649-40.091-57.086-60.21-21.5-22.258-41.777-44.501-61.385-66.012-78.422-86.034-146.15-160.333-248.43-190.739C286.717 42.433 150.865 63.977-32 142.176v1.486c182.822-78.258 318.535-99.863 425.655-68.016 101.905 30.294 169.51 104.46 247.793 190.34 19.615 21.518 39.897 43.77 61.413 66.041 19.43 20.113 38.565 40.49 57.072 60.196 63.683 67.813 123.834 131.865 188.15 177.62 72.13 51.318 139.656 72.611 212.521 66.964 67.794-5.241 123.424-35.065 170.07-91.18 41.16-49.517 69.207-112.39 91.744-162.909 6.713-15.051 12.731-29.065 18.553-42.615 25.804-60.083 42.85-99.775 65.741-100.036.078-.002.149-.002.225-.002 35.174 0 85.875 93.491 204.915 351.695v-3.337h-.002z"/>
            <path fill="#848484" fill-rule="nonzero" d="M1712 621.747c-117.728-286.279-165.711-376.327-198.428-376.327-.173 0-.351.003-.523.009-21.886.644-36.25 43.324-56.128 102.396-5.665 16.834-12.085 35.913-19.192 55.494-31.9 87.902-91.275 251.523-255.269 257.86-149.755 5.813-254.887-115.61-376.644-256.176-24.315-28.071-49.459-57.1-75.386-85.484l-7.16-7.843C633.717 213.572 549.13 120.908 431.92 78.81c-62.656-22.503-129.78-28.978-205.211-19.8C149.364 68.426 64.51 94.034-32 137.123v1.494C158.213 53.584 305.97 35.02 431.434 80.087c116.88 41.98 201.356 134.52 290.789 232.493l7.16 7.841c25.914 28.37 51.051 57.392 75.361 85.456 59.908 69.164 116.495 134.491 177.173 182.139 68.125 53.496 131.877 77.158 200.596 74.52 69.24-2.676 125.026-31.674 170.547-88.653 39.056-48.884 64.407-110.649 85.986-170.116 7.111-19.595 13.534-38.682 19.202-55.522 19.702-58.546 33.937-100.847 54.842-101.463.158-.004.312-.006.471-.006 31.743 0 81.381 93.915 198.438 378.64v-3.669h.001z"/>
            <path fill="#D1D7E5" fill-rule="nonzero" d="M1712 654.638c-53.321-143.952-92.14-241.233-121.013-303.414-32.248-69.45-54.333-100.563-71.437-100.563-.23 0-.458.005-.684.017-20.419 1-31.77 45.902-47.48 108.05-16.502 65.28-37.04 146.524-76.753 212.39-46.832 77.672-109.083 115.43-190.309 115.43-65.153 0-125.614-26.084-190.28-82.087-57.687-49.96-111.379-117.326-168.223-188.645-47.756-59.92-97.14-121.88-152.242-177.61C631.153 175.07 570.31 129.449 507.577 98.733c-76.13-37.278-155.424-53.379-242.418-49.208C174.62 53.857 74.759 81.293-32 131.101v1.504C176.345 35.15 352.857 24.501 506.948 99.947c139.97 68.531 240.523 194.695 337.766 316.703 56.885 71.37 110.615 138.785 168.398 188.828 64.936 56.238 125.695 82.43 191.211 82.43 43.4 0 82.287-11.193 115.575-33.269 28.742-19.061 54.292-46.929 75.94-82.833 39.816-66.037 60.381-147.388 76.904-212.755 14.981-59.258 26.814-106.064 46.193-107.013 30.423-1.521 81.956 106.27 193.064 406.6v-4h.001z"/>
        </g>
    </g>
</svg>
